<svg xmlns="http://www.w3.org/2000/svg" width="225" height="225" viewBox="0 0 225 225">
<g>
<path d="M 119.80 194.87 C113.14,194.60 111.77,194.84 109.69,196.65 C107.96,198.15 106.82,198.48 105.63,197.82 C104.73,197.31 103.60,197.13 103.14,197.42 C102.67,197.70 102.49,196.88 102.74,195.59 C102.99,194.29 102.67,192.92 102.05,192.53 C101.19,192.00 101.21,191.46 102.09,190.39 C103.74,188.41 102.78,187.79 98.85,188.28 C95.91,188.65 95.76,188.79 97.68,189.45 C98.88,189.86 99.64,190.77 99.37,191.47 C99.10,192.17 99.59,193.01 100.44,193.34 C103.09,194.36 102.16,196.00 98.94,196.00 C97.26,196.00 96.11,196.38 96.40,196.83 C96.68,197.29 96.32,197.67 95.61,197.67 C94.60,197.67 94.54,197.04 95.31,194.98 C96.59,191.61 95.70,189.20 92.77,188.09 C91.00,187.42 91.61,187.22 95.57,187.17 C98.36,187.14 101.06,187.02 101.57,186.90 C102.08,186.78 103.77,187.20 105.32,187.84 C106.86,188.48 108.76,189.00 109.53,189.00 C110.30,189.00 111.41,189.90 112.00,191.00 C113.07,192.99 113.09,192.99 115.99,190.85 C118.20,189.21 119.24,188.96 120.25,189.80 C121.24,190.61 122.63,190.55 125.55,189.54 C127.76,188.77 129.65,188.57 129.83,189.08 C130.02,189.59 130.92,190.00 131.83,190.00 C133.03,190.00 133.57,191.01 133.76,193.58 C133.97,196.52 133.70,197.09 132.26,196.79 C131.29,196.59 129.94,197.12 129.25,197.96 C128.14,199.33 128.06,199.31 128.57,197.85 C129.37,195.53 128.50,195.24 119.80,194.87 ZM 130.50 156.17 C130.82,156.48 130.95,161.17 130.79,166.58 L 130.50 176.41 L 125.58 170.64 L 120.65 164.88 L 125.29 160.24 C127.84,157.68 130.19,155.85 130.50,156.17 ZM 108.08 176.00 C107.58,176.00 106.45,176.27 105.58,176.61 C103.44,177.43 103.56,175.34 105.73,174.13 C107.36,173.22 107.35,173.05 105.62,171.13 C103.95,169.28 103.57,169.23 101.52,170.58 C99.01,172.22 94.00,171.06 94.00,168.82 C94.00,167.87 94.27,167.87 95.20,168.80 C95.86,169.46 97.35,170.00 98.50,170.00 C99.65,170.00 101.14,169.46 101.80,168.80 C102.73,167.87 103.27,167.87 104.20,168.80 C104.86,169.46 105.99,170.00 106.70,170.00 C108.61,170.00 108.41,163.09 106.47,162.35 C105.28,161.89 105.20,161.46 106.12,160.35 C107.05,159.24 106.89,158.63 105.40,157.50 C104.35,156.71 103.95,156.01 104.50,155.96 C105.05,155.90 106.29,155.70 107.25,155.51 C108.83,155.21 109.00,156.21 109.00,165.59 C109.00,171.31 108.59,176.00 108.08,176.00 ZM 90.51 173.42 C93.35,176.48 92.33,176.89 89.18,173.95 C87.96,172.82 86.53,172.17 85.99,172.51 C85.37,172.89 85.00,170.24 85.00,165.45 C85.00,158.86 85.22,157.87 86.59,158.40 C87.47,158.73 89.31,158.11 90.72,157.00 C92.12,155.90 94.00,155.02 94.88,155.04 C95.77,155.06 95.02,155.72 93.21,156.51 C86.88,159.26 85.48,167.99 90.51,173.42 ZM 125.17 168.80 C127.58,172.61 128.75,172.83 129.55,169.64 C131.41,162.24 127.63,156.95 124.63,162.74 C123.28,165.37 123.32,165.88 125.17,168.80 ZM 145.84 170.25 C145.93,170.66 143.98,171.00 141.50,171.00 C138.17,171.00 137.00,170.61 137.00,169.50 C137.00,168.39 138.17,168.00 141.50,168.00 C145.48,168.00 146.01,167.74 146.08,165.75 C146.12,164.51 146.39,164.08 146.67,164.78 C146.96,165.49 146.85,166.84 146.44,167.78 C146.02,168.73 145.75,169.84 145.84,170.25 ZM 191.00 196.00 C191.00,197.65 190.50,199.00 189.89,199.00 C189.28,199.00 189.03,198.38 189.32,197.61 C189.61,196.85 189.25,195.38 188.53,194.34 C187.45,192.81 187.44,191.77 188.45,188.83 C189.22,186.59 189.36,184.60 188.81,183.62 C188.13,182.41 188.29,182.17 189.46,182.62 C191.14,183.27 191.62,188.00 190.00,188.00 C189.45,188.00 189.00,189.12 189.00,190.50 C189.00,191.88 189.45,193.00 190.00,193.00 C190.55,193.00 191.00,194.35 191.00,196.00 ZM 124.83 155.86 C123.03,155.96 120.99,157.36 118.58,160.18 L 115.00 164.36 L 115.00 160.56 C115.00,157.47 115.25,156.97 116.36,157.88 C117.40,158.74 118.34,158.52 120.36,156.94 C121.90,155.72 123.93,155.04 125.25,155.29 C127.24,155.68 127.19,155.74 124.83,155.86 ZM 93.82 192.74 C93.49,195.61 90.54,197.11 89.76,194.80 C88.97,192.44 90.20,190.00 92.18,190.00 C93.72,190.00 94.07,190.58 93.82,192.74 ZM 122.00 175.69 C122.00,176.40 121.17,175.90 120.02,174.52 C119.11,173.42 118.30,173.30 116.89,174.06 C115.35,174.88 115.00,174.73 115.00,173.24 C115.00,172.23 115.53,170.87 116.17,170.23 C117.06,169.34 117.89,169.82 119.67,172.23 C120.95,173.97 122.00,175.53 122.00,175.69 ZM 146.00 161.90 C146.00,162.39 143.98,162.96 141.50,163.16 C138.36,163.41 137.00,163.13 137.00,162.26 C137.00,161.43 138.55,161.00 141.50,161.00 C143.98,161.00 146.00,161.40 146.00,161.90 ZM 65.00 163.00 C65.00,164.10 64.55,165.00 64.00,165.00 C63.45,165.00 63.00,164.36 63.00,163.58 C63.00,162.80 62.44,161.94 61.75,161.66 C61.06,161.38 61.51,161.12 62.75,161.08 C64.36,161.02 65.00,161.57 65.00,163.00 ZM 163.17 162.75 C162.68,163.71 162.02,165.18 161.71,166.00 C161.41,166.82 161.12,166.04 161.08,164.25 C161.02,161.96 161.45,161.00 162.54,161.00 C163.67,161.00 163.84,161.45 163.17,162.75 ZM 72.91 162.75 C72.17,163.71 71.44,164.69 71.28,164.92 C71.13,165.15 71.00,164.36 71.00,163.17 C71.00,161.83 71.63,161.00 72.62,161.00 C74.01,161.00 74.05,161.25 72.91,162.75 ZM 91.54 194.07 C92.35,195.38 92.67,195.23 92.67,193.54 C92.67,192.74 92.28,192.32 91.82,192.61 C91.35,192.90 91.23,193.56 91.54,194.07 Z" fill="rgb(116,65,209)"/>
<path d="M 183.62 202.47 L 180.90 205.00 L 111.19 204.96 C72.86,204.94 40.89,204.55 40.16,204.10 C39.43,203.65 38.93,202.88 39.05,202.39 C39.17,201.90 38.31,201.06 37.14,200.51 C35.96,199.97 34.96,199.07 34.92,198.51 C34.87,197.96 34.72,196.49 34.58,195.25 C34.44,193.99 34.88,193.00 35.57,193.00 C36.52,193.00 36.57,192.20 35.77,189.59 C35.19,187.71 35.08,185.35 35.51,184.34 C36.60,181.83 36.66,179.62 35.68,178.90 C34.33,177.90 34.15,173.00 35.47,173.00 C36.75,173.00 36.76,170.65 35.50,167.66 C35.07,166.65 35.16,164.39 35.70,162.63 C36.37,160.45 36.34,158.89 35.60,157.72 C34.84,156.52 34.83,155.48 35.56,154.25 C36.65,152.42 36.37,149.00 35.13,149.00 C34.73,149.00 34.58,147.54 34.80,145.75 C35.10,143.38 36.14,141.89 38.67,140.25 L 42.14 138.00 L 112.57 138.00 C158.48,138.00 183.00,138.35 183.00,138.99 C183.00,139.54 184.69,140.78 186.75,141.74 C189.55,143.06 190.58,144.20 190.82,146.25 C190.99,147.76 190.65,149.00 190.07,149.00 C188.72,149.00 188.66,152.67 190.00,153.50 C191.30,154.30 191.30,159.00 190.00,159.00 C188.57,159.00 188.76,162.75 190.22,163.24 C191.17,163.56 191.15,164.51 190.15,167.57 C189.29,170.18 189.17,172.32 189.77,173.94 C190.36,175.50 190.29,177.45 189.59,179.35 C188.76,181.62 188.79,182.41 189.75,182.74 C190.52,183.00 190.94,184.29 190.97,185.60 C190.85,184.32 190.31,182.95 189.46,182.62 C188.29,182.17 188.13,182.41 188.81,183.62 C189.36,184.60 189.22,186.59 188.45,188.83 C187.44,191.77 187.45,192.81 188.53,194.34 C189.25,195.38 189.61,196.85 189.32,197.61 C189.05,198.30 189.24,198.87 189.72,198.98 C189.43,199.14 189.08,199.26 188.67,199.37 C187.39,199.69 185.12,201.09 183.62,202.47 ZM 145.84 170.25 C145.75,169.84 146.02,168.73 146.44,167.78 C146.85,166.84 146.96,165.49 146.67,164.78 C146.39,164.08 146.12,164.51 146.08,165.75 C146.01,167.74 145.48,168.00 141.50,168.00 C139.20,168.00 137.94,168.18 137.37,168.66 C137.88,168.12 139.04,168.00 141.50,168.00 C145.33,168.00 146.00,167.70 146.00,166.00 C146.00,164.30 145.33,164.00 141.50,164.00 C138.02,164.00 137.16,163.76 137.02,162.44 C137.20,163.17 138.59,163.39 141.50,163.16 C143.98,162.96 146.00,162.39 146.00,161.90 C146.00,161.40 143.98,161.00 141.50,161.00 C138.64,161.00 137.09,161.41 137.00,162.19 C137.00,162.11 137.00,162.04 137.00,161.96 C137.00,160.04 137.52,159.94 145.75,160.21 C150.55,160.37 152.80,160.22 153.86,161.27 C154.80,162.19 154.82,164.04 154.86,167.85 C154.87,168.58 154.88,169.37 154.89,170.25 C154.99,175.66 155.14,176.00 157.46,176.00 C159.83,176.00 159.93,175.74 160.21,168.25 L 160.50 160.50 L 164.25 160.19 C167.19,159.95 168.00,159.46 168.00,157.94 C168.00,156.09 167.14,156.00 149.50,156.00 L 131.00 156.00 L 131.00 165.92 C131.00,172.92 131.37,175.98 132.25,176.33 C133.77,176.94 142.82,176.92 145.25,176.31 C146.21,176.06 147.00,175.00 147.00,173.93 C147.00,172.28 146.28,172.00 142.00,172.00 C137.67,172.00 137.00,171.73 137.00,170.00 C137.00,169.88 137.00,169.77 137.01,169.67 C137.13,170.65 138.34,171.00 141.50,171.00 C143.98,171.00 145.93,170.66 145.84,170.25 ZM 109.00 165.59 C109.00,156.21 108.83,155.21 107.25,155.51 C106.29,155.70 105.05,155.90 104.50,155.96 C103.95,156.01 104.35,156.71 105.40,157.50 C105.58,157.64 105.74,157.76 105.88,157.88 C105.51,157.66 105.03,157.43 104.45,157.16 C98.01,154.22 89.98,157.12 87.85,162.82 C88.59,160.09 90.42,157.72 93.21,156.51 C95.02,155.72 95.77,155.06 94.88,155.04 C94.00,155.02 92.12,155.90 90.72,157.00 C89.31,158.11 87.47,158.73 86.59,158.40 C85.22,157.87 85.00,158.86 85.00,165.45 C85.00,170.24 85.37,172.89 85.99,172.51 C86.53,172.17 87.96,172.82 89.18,173.95 C92.33,176.89 93.35,176.48 90.51,173.42 C89.07,171.87 88.16,170.04 87.74,168.16 C88.49,171.01 90.28,173.83 92.30,174.80 C95.24,176.22 101.87,176.18 104.73,174.88 C103.60,176.02 103.84,177.28 105.58,176.61 C106.45,176.27 107.58,176.00 108.08,176.00 C108.59,176.00 109.00,171.31 109.00,165.59 ZM 130.50 156.17 C130.19,155.85 127.84,157.68 125.29,160.24 L 123.61 161.92 L 125.10 160.40 L 129.42 156.00 L 126.09 156.00 C123.46,156.00 121.98,156.87 118.93,160.25 L 115.08 164.50 L 115.08 164.27 L 118.58 160.18 C120.99,157.36 123.03,155.96 124.83,155.86 C127.19,155.74 127.24,155.68 125.25,155.29 C123.93,155.04 121.90,155.72 120.36,156.94 C118.34,158.52 117.40,158.74 116.36,157.88 C115.44,157.12 115.11,157.34 115.02,159.20 C114.95,156.17 114.59,156.00 112.00,156.00 L 109.00 156.00 L 109.00 176.00 L 112.00 176.00 C114.49,176.00 115.00,175.60 115.00,173.62 C115.00,173.55 115.00,173.48 115.00,173.41 C115.03,174.74 115.42,174.85 116.89,174.06 C118.30,173.30 119.11,173.42 120.02,174.52 C121.17,175.90 122.00,176.40 122.00,175.69 C122.00,175.53 120.95,173.97 119.67,172.23 C119.41,171.88 119.18,171.58 118.96,171.31 C119.30,171.65 119.64,172.06 120.00,172.54 C121.38,174.38 123.40,176.08 124.50,176.31 C130.28,177.52 130.32,176.85 124.89,169.99 L 123.41 168.11 L 125.58 170.64 L 130.50 176.41 L 130.79 166.58 C130.95,161.17 130.82,156.48 130.50,156.17 ZM 119.80 194.87 C128.50,195.24 129.37,195.53 128.57,197.85 C128.06,199.31 128.14,199.33 129.25,197.96 C129.94,197.12 131.29,196.59 132.26,196.79 C133.70,197.09 133.97,196.52 133.76,193.58 C133.57,191.01 133.03,190.00 131.83,190.00 C130.92,190.00 130.02,189.59 129.83,189.08 C129.65,188.57 127.76,188.77 125.55,189.54 C122.63,190.55 121.24,190.61 120.25,189.80 C119.24,188.96 118.20,189.21 115.99,190.85 C113.09,192.99 113.07,192.99 112.00,191.00 C111.41,189.90 110.30,189.00 109.53,189.00 C108.76,189.00 106.86,188.48 105.32,187.84 C103.77,187.20 102.08,186.78 101.57,186.90 C101.06,187.02 98.36,187.14 95.57,187.17 C91.61,187.22 91.00,187.42 92.77,188.09 C92.80,188.10 92.83,188.11 92.85,188.12 C92.06,187.91 91.17,188.03 90.25,188.61 C88.12,189.94 87.42,194.59 89.05,196.56 C90.67,198.52 92.36,198.37 94.43,196.08 C96.58,193.70 95.91,190.26 94.09,188.77 C95.94,190.05 96.37,192.18 95.31,194.98 C94.54,197.04 94.60,197.67 95.61,197.67 C96.32,197.67 96.68,197.29 96.40,196.83 C96.33,196.72 96.34,196.61 96.43,196.52 C96.51,196.65 96.70,196.81 97.00,197.00 C98.78,198.15 99.32,198.20 101.42,197.39 C101.98,197.18 102.39,196.72 102.65,196.16 C102.55,197.11 102.74,197.66 103.14,197.42 C103.60,197.13 104.73,197.31 105.63,197.82 C106.82,198.48 107.96,198.15 109.69,196.65 C111.77,194.84 113.14,194.60 119.80,194.87 ZM 64.79 168.25 C65.07,175.70 65.18,176.00 67.50,176.00 C69.82,176.00 69.93,175.70 70.21,168.25 L 70.50 160.50 L 74.00 160.00 C76.24,159.68 77.60,158.90 77.78,157.83 C78.01,156.41 76.88,156.10 70.28,155.83 C59.91,155.39 58.00,155.73 58.00,158.01 C58.00,159.38 58.86,159.96 61.25,160.19 L 64.50 160.50 L 64.54 161.54 C64.18,161.19 63.60,161.05 62.75,161.08 C61.51,161.12 61.06,161.38 61.75,161.66 C62.44,161.94 63.00,162.80 63.00,163.58 C63.00,164.36 63.45,165.00 64.00,165.00 C64.25,165.00 64.48,164.82 64.65,164.51 ZM 105.75 160.85 C105.26,161.60 105.48,161.97 106.47,162.35 C108.41,163.09 108.61,170.00 106.70,170.00 C105.99,170.00 104.86,169.46 104.20,168.80 C103.27,167.87 102.73,167.87 101.80,168.80 C101.14,169.46 99.65,170.00 98.50,170.00 C97.35,170.00 95.86,169.46 95.20,168.80 C94.27,167.87 94.00,167.87 94.00,168.82 C94.00,168.88 94.00,168.94 94.01,168.99 C92.97,167.20 93.18,164.73 95.36,162.55 C97.99,159.92 100.00,159.25 100.00,161.00 C100.00,162.38 104.25,162.25 105.75,160.85 ZM 79.00 156.00 L 79.00 176.00 L 84.00 176.00 L 84.00 156.00 L 79.00 156.00 ZM 125.17 168.80 C123.32,165.88 123.28,165.37 124.63,162.74 C127.63,156.95 131.41,162.24 129.55,169.64 C128.75,172.83 127.58,172.61 125.17,168.80 ZM 163.17 162.75 C163.84,161.45 163.67,161.00 162.54,161.00 C161.45,161.00 161.02,161.96 161.08,164.25 C161.12,166.04 161.41,166.82 161.71,166.00 C162.02,165.18 162.68,163.71 163.17,162.75 ZM 72.91 162.75 C74.05,161.25 74.01,161.00 72.62,161.00 C71.63,161.00 71.00,161.83 71.00,163.17 C71.00,164.36 71.13,165.15 71.28,164.92 C71.44,164.69 72.17,163.71 72.91,162.75 ZM 97.72 188.43 C97.84,188.51 98.20,188.60 98.81,188.71 C100.75,189.08 100.91,189.40 99.86,190.67 C99.68,190.89 99.53,191.08 99.42,191.25 C99.48,190.59 98.76,189.82 97.68,189.45 C96.05,188.89 95.91,188.70 97.72,188.43 ZM 111.00 144.00 C111.00,144.55 111.68,145.00 112.50,145.00 C113.32,145.00 114.00,144.55 114.00,144.00 C114.00,143.45 113.32,143.00 112.50,143.00 C111.68,143.00 111.00,143.45 111.00,144.00 ZM 99.00 144.00 C99.00,144.55 99.45,145.00 100.00,145.00 C100.55,145.00 101.00,144.55 101.00,144.00 C101.00,143.45 100.55,143.00 100.00,143.00 C99.45,143.00 99.00,143.45 99.00,144.00 ZM 118.00 144.00 C118.00,144.55 118.45,145.00 119.00,145.00 C119.55,145.00 120.00,144.55 120.00,144.00 C120.00,143.45 119.55,143.00 119.00,143.00 C118.45,143.00 118.00,143.45 118.00,144.00 ZM 124.00 144.00 C124.00,144.55 124.45,145.00 125.00,145.00 C125.55,145.00 126.00,144.55 126.00,144.00 C126.00,143.45 125.55,143.00 125.00,143.00 C124.45,143.00 124.00,143.45 124.00,144.00 ZM 96.43 171.05 C98.07,171.54 100.16,171.47 101.52,170.58 C103.57,169.23 103.95,169.28 105.62,171.13 C105.81,171.35 105.99,171.54 106.14,171.72 C106.06,171.63 105.97,171.54 105.88,171.45 C104.69,170.26 103.75,170.15 101.67,170.93 C99.67,171.69 97.85,171.64 96.43,171.05 ZM 91.54 194.07 C91.23,193.56 91.35,192.90 91.82,192.61 C92.28,192.32 92.67,192.74 92.67,193.54 C92.67,195.23 92.35,195.38 91.54,194.07 ZM 93.82 192.74 C93.88,192.23 93.90,191.81 93.89,191.46 C93.97,191.87 94.00,192.37 94.00,193.00 C94.00,195.29 93.55,196.00 92.08,196.00 C91.84,196.00 91.59,195.97 91.36,195.91 C92.42,195.75 93.61,194.50 93.82,192.74 ZM 189.02 191.05 C189.01,190.87 189.00,190.69 189.00,190.50 C189.00,189.12 189.45,188.00 190.00,188.00 C190.29,188.00 190.51,187.85 190.67,187.60 C190.51,188.00 190.29,188.32 190.00,188.50 C189.35,188.90 189.02,190.03 189.02,191.05 ZM 116.27 170.14 C116.23,170.17 116.20,170.20 116.17,170.23 C115.62,170.78 115.16,171.85 115.03,172.77 C115.15,171.30 115.60,170.41 116.27,170.14 ZM 99.56 192.67 C99.75,192.82 99.99,192.97 100.30,193.15 C100.56,193.30 100.80,193.44 101.00,193.59 C100.83,193.50 100.65,193.42 100.44,193.34 C100.07,193.20 99.76,192.95 99.56,192.67 ZM 106.76 172.52 C107.12,173.12 106.93,173.41 106.21,173.85 C106.80,173.33 106.97,172.98 106.76,172.52 ZM 102.32 192.79 C102.20,192.66 102.07,192.54 101.91,192.45 C101.21,192.01 101.14,191.57 101.70,190.91 C101.23,191.65 101.35,192.10 102.05,192.53 C102.15,192.59 102.24,192.68 102.32,192.79 ZM 102.80 188.65 C102.51,188.32 101.80,188.14 100.66,188.12 C101.89,188.08 102.59,188.25 102.80,188.65 ZM 101.92 195.00 C101.76,195.60 100.67,196.01 98.75,196.02 C98.58,196.02 98.42,196.02 98.27,196.02 C98.48,196.01 98.71,196.00 98.94,196.00 C100.61,196.00 101.66,195.56 101.92,195.00 ZM 92.15 190.00 C90.20,190.02 88.99,192.42 89.75,194.76 C89.75,194.76 89.75,194.75 89.75,194.75 C88.98,192.47 90.21,190.00 92.12,190.00 C92.13,190.00 92.14,190.00 92.15,190.00 ZM 191.00 195.95 C190.99,194.32 190.54,193.00 190.00,193.00 C190.55,193.00 191.00,194.30 191.00,195.89 C191.00,195.91 191.00,195.93 191.00,195.95 Z" fill="rgb(128,62,240)"/>
<path d="M 184.00 94.83 C184.00,95.71 166.39,96.00 112.16,96.00 L 40.32 96.00 L 39.22 93.59 C38.62,92.26 37.19,90.88 36.06,90.52 C33.71,89.77 33.19,85.21 35.22,83.18 C36.19,82.21 36.19,81.54 35.22,79.99 C34.55,78.91 34.00,77.21 34.00,76.21 C34.00,75.22 34.55,73.85 35.22,73.18 C36.19,72.21 36.19,71.54 35.22,69.99 C34.55,68.91 34.00,67.21 34.00,66.21 C34.00,65.22 34.55,63.85 35.22,63.18 C36.19,62.21 36.19,61.54 35.22,59.99 C33.66,57.49 33.66,54.74 35.22,53.18 C36.19,52.21 36.19,51.54 35.22,49.99 C33.75,47.62 33.61,44.00 35.00,44.00 C36.30,44.00 36.30,40.30 35.00,39.50 C33.21,38.39 33.84,33.19 35.84,32.55 C36.85,32.23 38.28,30.85 39.01,29.48 L 40.34 27.00 L 112.17 27.00 C171.67,27.00 184.00,27.23 184.00,28.35 C184.00,30.15 187.26,33.00 189.33,33.00 C190.51,33.00 191.00,33.86 191.00,35.94 C191.00,37.56 190.55,39.16 190.00,39.50 C189.45,39.84 189.00,40.99 189.00,42.06 C189.00,43.13 189.45,44.00 190.00,44.00 C191.39,44.00 191.25,47.62 189.78,49.99 C188.81,51.54 188.81,52.21 189.78,53.18 C191.35,54.75 191.35,58.25 189.78,59.82 C188.81,60.79 188.81,61.46 189.78,63.01 C191.34,65.51 191.34,68.26 189.78,69.82 C188.81,70.79 188.81,71.46 189.78,73.01 C191.26,75.38 191.37,78.65 190.00,79.50 C189.45,79.84 189.00,80.99 189.00,82.06 C189.00,83.13 189.45,84.00 190.00,84.00 C190.55,84.00 191.00,85.35 191.00,87.00 C191.00,89.25 190.54,90.00 189.15,90.00 C187.15,90.00 184.00,92.95 184.00,94.83 ZM 131.00 46.00 L 131.00 67.00 L 139.00 67.00 C146.87,67.00 147.00,66.96 147.00,64.50 C147.00,62.17 146.67,62.00 142.00,62.00 C138.22,62.00 137.00,61.63 137.00,60.50 C137.00,59.60 138.00,58.95 139.50,58.88 C140.88,58.81 142.45,58.64 143.00,58.50 C143.55,58.36 144.45,58.19 145.00,58.12 C145.55,58.06 146.00,57.10 146.00,56.00 C146.00,54.30 145.33,54.00 141.50,54.00 C138.17,54.00 137.00,53.61 137.00,52.50 C137.00,51.37 138.22,51.00 142.00,51.00 C146.67,51.00 147.00,50.83 147.00,48.50 C147.00,46.04 146.87,46.00 139.00,46.00 ZM 109.43 65.67 C109.71,66.40 111.08,67.00 112.47,67.00 C114.60,67.00 115.00,66.54 115.00,64.06 C115.00,59.50 116.98,59.23 120.42,63.33 C122.59,65.92 124.31,67.00 126.25,67.00 C127.76,67.00 129.00,66.75 129.00,66.44 C129.00,66.13 127.24,63.57 125.09,60.75 L 121.18 55.62 L 124.59 51.46 C128.60,46.56 128.73,46.00 125.79,46.00 C124.53,46.00 121.72,47.82 119.29,50.21 L 115.00 54.42 L 115.00 50.14 C115.00,46.07 114.87,45.88 112.25,46.18 C109.50,46.50 109.50,46.51 109.21,55.42 C109.05,60.33 109.15,64.94 109.43,65.67 ZM 92.42 65.11 C96.18,67.41 100.11,67.51 104.14,65.43 C107.08,63.91 107.12,63.79 105.41,61.90 C104.21,60.57 103.32,60.28 102.62,60.98 C99.81,63.79 93.00,60.74 93.00,56.67 C93.00,52.27 97.79,49.75 101.94,51.97 C103.30,52.69 104.18,52.46 105.46,51.04 C107.10,49.23 107.04,49.07 104.14,47.57 C91.69,41.13 80.52,57.86 92.42,65.11 ZM 155.00 59.00 C155.00,66.87 155.04,67.00 157.50,67.00 C159.96,67.00 160.00,66.87 160.00,59.00 L 160.00 51.00 L 163.57 51.00 C166.70,51.00 167.10,50.72 166.82,48.75 C166.52,46.61 166.07,46.50 157.50,46.50 C148.93,46.50 148.48,46.61 148.18,48.75 C147.90,50.72 148.30,51.00 151.43,51.00 L 155.00 51.00 ZM 65.00 59.00 C65.00,66.87 65.04,67.00 67.50,67.00 C69.96,67.00 70.00,66.86 70.00,59.06 L 70.00 51.13 L 73.25 50.81 C75.73,50.57 76.50,50.03 76.50,48.50 C76.50,46.65 75.83,46.50 67.50,46.50 C58.93,46.50 58.48,46.61 58.18,48.75 C57.90,50.72 58.30,51.00 61.43,51.00 L 65.00 51.00 ZM 79.22 56.75 L 78.93 67.00 L 84.00 67.00 L 84.00 56.43 C84.00,46.04 83.96,45.87 81.75,46.18 C79.61,46.48 79.49,46.98 79.22,56.75 ZM 118.49 87.12 C119.11,87.73 119.60,87.70 119.82,87.04 C120.27,85.68 128.00,85.68 128.00,87.04 C128.00,87.65 128.55,87.57 129.34,86.83 C131.15,85.14 129.13,82.68 127.23,84.24 C125.09,85.99 124.62,84.23 126.43,81.28 C128.00,78.71 127.90,78.75 125.08,81.75 C121.97,85.07 120.00,85.89 120.00,83.88 C120.00,83.11 119.52,83.16 118.48,84.02 C116.13,85.96 115.53,84.39 117.43,81.28 C118.88,78.92 118.64,79.02 115.85,82.00 L 112.57 85.50 L 115.03 85.83 C116.39,86.02 117.94,86.60 118.49,87.12 Z" fill="rgb(230,34,42)"/>
<path d="M 0.00 112.50 L 0.00 0.00 L 112.50 0.00 L 225.00 0.00 L 225.00 112.50 L 225.00 225.00 L 112.50 225.00 L 0.00 225.00 L 0.00 112.50 ZM 183.62 202.47 C185.12,201.09 187.39,199.69 188.67,199.37 C190.44,198.92 191.00,198.08 191.00,195.89 C191.00,194.30 190.55,193.00 190.00,193.00 C188.70,193.00 188.70,189.30 190.00,188.50 C191.43,187.62 191.24,183.25 189.75,182.74 C188.79,182.41 188.76,181.62 189.59,179.35 C190.29,177.45 190.36,175.50 189.77,173.94 C189.17,172.32 189.29,170.18 190.15,167.57 C191.15,164.51 191.17,163.56 190.22,163.24 C188.76,162.75 188.57,159.00 190.00,159.00 C191.30,159.00 191.30,154.30 190.00,153.50 C188.66,152.67 188.72,149.00 190.07,149.00 C190.65,149.00 190.99,147.76 190.82,146.25 C190.58,144.20 189.55,143.06 186.75,141.74 C184.69,140.78 183.00,139.54 183.00,138.99 C183.00,138.35 158.48,138.00 112.57,138.00 L 42.14 138.00 L 38.67 140.25 C36.14,141.89 35.10,143.38 34.80,145.75 C34.58,147.54 34.73,149.00 35.13,149.00 C36.37,149.00 36.65,152.42 35.56,154.25 C34.83,155.48 34.84,156.52 35.60,157.72 C36.34,158.89 36.37,160.45 35.70,162.63 C35.16,164.39 35.07,166.65 35.50,167.66 C36.76,170.65 36.75,173.00 35.47,173.00 C34.15,173.00 34.33,177.90 35.68,178.90 C36.66,179.62 36.60,181.83 35.51,184.34 C35.08,185.35 35.19,187.71 35.77,189.59 C36.57,192.20 36.52,193.00 35.57,193.00 C34.88,193.00 34.44,193.99 34.58,195.25 C34.72,196.49 34.87,197.96 34.92,198.51 C34.96,199.07 35.96,199.97 37.14,200.51 C38.31,201.06 39.17,201.90 39.05,202.39 C38.93,202.88 39.43,203.65 40.16,204.10 C40.89,204.55 72.86,204.94 111.19,204.96 L 180.90 205.00 L 183.62 202.47 ZM 184.00 94.83 C184.00,92.95 187.15,90.00 189.15,90.00 C190.54,90.00 191.00,89.25 191.00,87.00 C191.00,85.35 190.55,84.00 190.00,84.00 C189.45,84.00 189.00,83.13 189.00,82.06 C189.00,80.99 189.45,79.84 190.00,79.50 C191.37,78.65 191.26,75.38 189.78,73.01 C188.81,71.46 188.81,70.79 189.78,69.82 C191.34,68.26 191.34,65.51 189.78,63.01 C188.81,61.46 188.81,60.79 189.78,59.82 C191.35,58.25 191.35,54.75 189.78,53.18 C188.81,52.21 188.81,51.54 189.78,49.99 C191.25,47.62 191.39,44.00 190.00,44.00 C189.45,44.00 189.00,43.13 189.00,42.06 C189.00,40.99 189.45,39.84 190.00,39.50 C190.55,39.16 191.00,37.56 191.00,35.94 C191.00,33.86 190.51,33.00 189.33,33.00 C187.26,33.00 184.00,30.15 184.00,28.35 C184.00,27.23 171.67,27.00 112.17,27.00 L 40.34 27.00 L 39.01 29.48 C38.28,30.85 36.85,32.23 35.84,32.55 C33.84,33.19 33.21,38.39 35.00,39.50 C36.30,40.30 36.30,44.00 35.00,44.00 C33.61,44.00 33.75,47.62 35.22,49.99 C36.19,51.54 36.19,52.21 35.22,53.18 C33.66,54.74 33.66,57.49 35.22,59.99 C36.19,61.54 36.19,62.21 35.22,63.18 C34.55,63.85 34.00,65.22 34.00,66.21 C34.00,67.21 34.55,68.91 35.22,69.99 C36.19,71.54 36.19,72.21 35.22,73.18 C34.55,73.85 34.00,75.22 34.00,76.21 C34.00,77.21 34.55,78.91 35.22,79.99 C36.19,81.54 36.19,82.21 35.22,83.18 C33.19,85.21 33.71,89.77 36.06,90.52 C37.19,90.88 38.62,92.26 39.22,93.59 L 40.32 96.00 L 112.16 96.00 C166.39,96.00 184.00,95.71 184.00,94.83 ZM 89.05 196.56 C87.42,194.59 88.12,189.94 90.25,188.61 C94.27,186.09 97.78,192.37 94.43,196.08 C92.36,198.37 90.67,198.52 89.05,196.56 ZM 94.00 193.00 C94.00,190.73 93.54,190.00 92.12,190.00 C90.21,190.00 88.98,192.47 89.75,194.75 C89.98,195.44 91.03,196.00 92.08,196.00 C93.55,196.00 94.00,195.29 94.00,193.00 ZM 97.00 197.00 C95.86,196.26 96.28,196.03 98.75,196.02 C102.28,196.00 103.00,194.66 100.30,193.15 C98.90,192.36 98.82,191.92 99.86,190.67 C100.91,189.40 100.75,189.08 98.81,188.71 C97.07,188.38 97.30,188.24 99.75,188.14 C103.11,188.00 103.80,188.80 101.91,190.69 C101.13,191.47 101.13,191.96 101.91,192.45 C103.55,193.45 103.22,196.70 101.42,197.39 C99.32,198.20 98.78,198.15 97.00,197.00 ZM 124.50 176.31 C123.40,176.08 121.38,174.38 120.00,172.54 C117.24,168.83 115.00,169.32 115.00,173.62 C115.00,175.60 114.49,176.00 112.00,176.00 L 109.00 176.00 L 109.00 166.00 L 109.00 156.00 L 112.00 156.00 C114.86,156.00 115.00,156.20 115.04,160.25 L 115.08 164.50 L 118.93 160.25 C121.98,156.87 123.46,156.00 126.09,156.00 L 129.42 156.00 L 125.10 160.40 L 120.79 164.79 L 124.89 169.99 C130.32,176.85 130.28,177.52 124.50,176.31 ZM 132.25 176.33 C131.37,175.98 131.00,172.92 131.00,165.92 L 131.00 156.00 L 149.50 156.00 C167.14,156.00 168.00,156.09 168.00,157.94 C168.00,159.46 167.19,159.95 164.25,160.19 L 160.50 160.50 L 160.21 168.25 C159.93,175.74 159.83,176.00 157.46,176.00 C155.14,176.00 154.99,175.66 154.89,170.25 C154.70,159.56 155.58,160.54 145.75,160.21 C137.52,159.94 137.00,160.04 137.00,161.96 C137.00,163.71 137.64,164.00 141.50,164.00 C145.33,164.00 146.00,164.30 146.00,166.00 C146.00,167.70 145.33,168.00 141.50,168.00 C137.67,168.00 137.00,168.30 137.00,170.00 C137.00,171.73 137.67,172.00 142.00,172.00 C146.28,172.00 147.00,172.28 147.00,173.93 C147.00,175.00 146.21,176.06 145.25,176.31 C142.82,176.92 133.77,176.94 132.25,176.33 ZM 64.79 168.25 L 64.50 160.50 L 61.25 160.19 C58.86,159.96 58.00,159.38 58.00,158.01 C58.00,155.73 59.91,155.39 70.28,155.83 C76.88,156.10 78.01,156.41 77.78,157.83 C77.60,158.90 76.24,159.68 74.00,160.00 L 70.50 160.50 L 70.21 168.25 C69.93,175.70 69.82,176.00 67.50,176.00 C65.18,176.00 65.07,175.70 64.79,168.25 ZM 79.00 166.00 L 79.00 156.00 L 81.50 156.00 L 84.00 156.00 L 84.00 166.00 L 84.00 176.00 L 81.50 176.00 L 79.00 176.00 L 79.00 166.00 ZM 92.30 174.80 C89.24,173.32 86.71,167.61 87.50,163.98 C88.92,157.52 97.59,154.03 104.45,157.16 C107.31,158.46 107.53,159.07 105.80,160.80 C104.35,162.25 100.00,162.40 100.00,161.00 C100.00,159.25 97.99,159.92 95.36,162.55 C90.61,167.30 95.20,173.39 101.67,170.93 C103.75,170.15 104.69,170.26 105.88,171.45 C107.25,172.82 107.21,173.13 105.45,174.46 C103.20,176.16 95.53,176.36 92.30,174.80 ZM 99.00 144.00 C99.00,143.45 99.45,143.00 100.00,143.00 C100.55,143.00 101.00,143.45 101.00,144.00 C101.00,144.55 100.55,145.00 100.00,145.00 C99.45,145.00 99.00,144.55 99.00,144.00 ZM 111.00 144.00 C111.00,143.45 111.68,143.00 112.50,143.00 C113.32,143.00 114.00,143.45 114.00,144.00 C114.00,144.55 113.32,145.00 112.50,145.00 C111.68,145.00 111.00,144.55 111.00,144.00 ZM 118.00 144.00 C118.00,143.45 118.45,143.00 119.00,143.00 C119.55,143.00 120.00,143.45 120.00,144.00 C120.00,144.55 119.55,145.00 119.00,145.00 C118.45,145.00 118.00,144.55 118.00,144.00 ZM 124.00 144.00 C124.00,143.45 124.45,143.00 125.00,143.00 C125.55,143.00 126.00,143.45 126.00,144.00 C126.00,144.55 125.55,145.00 125.00,145.00 C124.45,145.00 124.00,144.55 124.00,144.00 ZM 118.49 87.12 C117.94,86.60 116.39,86.02 115.03,85.83 L 112.57 85.50 L 115.85 82.00 C118.64,79.02 118.88,78.92 117.43,81.28 C115.53,84.39 116.13,85.96 118.48,84.02 C119.52,83.16 120.00,83.11 120.00,83.88 C120.00,85.89 121.97,85.07 125.08,81.75 C127.90,78.75 128.00,78.71 126.43,81.28 C124.62,84.23 125.09,85.99 127.23,84.24 C129.13,82.68 131.15,85.14 129.34,86.83 C128.55,87.57 128.00,87.65 128.00,87.04 C128.00,85.68 120.27,85.68 119.82,87.04 C119.60,87.70 119.11,87.73 118.49,87.12 ZM 65.00 59.00 L 65.00 51.00 L 61.43 51.00 C58.30,51.00 57.90,50.72 58.18,48.75 C58.48,46.61 58.93,46.50 67.50,46.50 C75.83,46.50 76.50,46.65 76.50,48.50 C76.50,50.03 75.73,50.57 73.25,50.81 L 70.00 51.13 L 70.00 59.06 C70.00,66.86 69.96,67.00 67.50,67.00 C65.04,67.00 65.00,66.87 65.00,59.00 ZM 79.22 56.75 C79.49,46.98 79.61,46.48 81.75,46.18 C83.96,45.87 84.00,46.04 84.00,56.43 L 84.00 67.00 L 81.47 67.00 L 78.93 67.00 L 79.22 56.75 ZM 92.42 65.11 C80.52,57.86 91.69,41.13 104.14,47.57 C107.04,49.07 107.10,49.23 105.46,51.04 C104.18,52.46 103.30,52.69 101.94,51.97 C97.79,49.75 93.00,52.27 93.00,56.67 C93.00,60.74 99.81,63.79 102.62,60.98 C103.32,60.28 104.21,60.57 105.41,61.90 C107.12,63.79 107.08,63.91 104.14,65.43 C100.11,67.51 96.18,67.41 92.42,65.11 ZM 109.43 65.67 C109.15,64.94 109.05,60.33 109.21,55.42 C109.50,46.51 109.50,46.50 112.25,46.18 C114.87,45.88 115.00,46.07 115.00,50.14 L 115.00 54.42 L 119.29 50.21 C121.72,47.82 124.53,46.00 125.79,46.00 C128.73,46.00 128.60,46.56 124.59,51.46 L 121.18 55.62 L 125.09 60.75 C127.24,63.57 129.00,66.13 129.00,66.44 C129.00,66.75 127.76,67.00 126.25,67.00 C124.31,67.00 122.59,65.92 120.42,63.33 C116.98,59.23 115.00,59.50 115.00,64.06 C115.00,66.54 114.60,67.00 112.47,67.00 C111.08,67.00 109.71,66.40 109.43,65.67 ZM 131.00 56.50 L 131.00 46.00 L 139.00 46.00 C146.87,46.00 147.00,46.04 147.00,48.50 C147.00,50.83 146.67,51.00 142.00,51.00 C138.22,51.00 137.00,51.37 137.00,52.50 C137.00,53.61 138.17,54.00 141.50,54.00 C145.33,54.00 146.00,54.30 146.00,56.00 C146.00,57.10 145.55,58.06 145.00,58.12 C144.45,58.19 143.55,58.36 143.00,58.50 C142.45,58.64 140.88,58.81 139.50,58.88 C138.00,58.95 137.00,59.60 137.00,60.50 C137.00,61.63 138.22,62.00 142.00,62.00 C146.67,62.00 147.00,62.17 147.00,64.50 C147.00,66.96 146.87,67.00 139.00,67.00 L 131.00 67.00 L 131.00 56.50 ZM 155.00 59.00 L 155.00 51.00 L 151.43 51.00 C148.30,51.00 147.90,50.72 148.18,48.75 C148.48,46.61 148.93,46.50 157.50,46.50 C166.07,46.50 166.52,46.61 166.82,48.75 C167.10,50.72 166.70,51.00 163.57,51.00 L 160.00 51.00 L 160.00 59.00 C160.00,66.87 159.96,67.00 157.50,67.00 C155.04,67.00 155.00,66.87 155.00,59.00 Z" fill="rgb(254,251,253)"/>
</g>
</svg>